<svg xmlns="http://www.w3.org/2000/svg" fill="none" viewBox="0 0 85 98">
  <path fill="#ff8502" d="M37.506 2.879a10 10 0 0 1 9.988 0l32.5 18.735A10 10 0 0 1 85 30.278v37.444a10 10 0 0 1-5.006 8.664l-32.5 18.735a10 10 0 0 1-9.988 0l-32.5-18.735A10 10 0 0 1 0 67.722V30.278a10 10 0 0 1 5.006-8.664z"/>
  <g filter="url(#a)">
    <path fill="#fff" fill-rule="evenodd" d="M42.495 18a5.4 5.4 0 0 1 2.975.817c1.172.65 2.472 1.925 4.09 2.732 2.27 1.137 6.48-.43 8.64 2.37 1.257 1.634 1.315 2.914 1.41 4.176.068 1.641.763 3.216 1.973 4.471 2.652 3.057 3.183 5.103 1.83 7.218-.928 1.443-2.885 2.25-3.336 3.164-.965 1.953.1 3.419-1.22 5.692a6.2 6.2 0 0 1-1.728 1.956 7.3 7.3 0 0 1-2.478 1.189c-1.59.464-3.182-.2-4.45.269-2.233.825-3.882 2.732-5.68 3.214a7.84 7.84 0 0 1-4.1 0c-1.777-.464-3.426-2.389-5.654-3.21-1.273-.464-2.864.181-4.45-.269a7.2 7.2 0 0 1-2.483-1.186 6.2 6.2 0 0 1-1.728-1.959c-1.321-2.273-.255-3.739-1.22-5.691-.451-.928-2.408-1.721-3.336-3.164-1.364-2.125-.812-4.175 1.835-7.218 1.205-1.259 1.899-2.831 1.973-4.472.09-1.266.148-2.546 1.41-4.175 2.154-2.783 6.365-1.233 8.64-2.37 1.592-.807 2.923-2.083 4.085-2.727A5.43 5.43 0 0 1 42.495 18m-.292 12.001c.297-1.317 2.763-.107 2.922 2.013a8 8 0 0 1-.212 2.25h3.522c1.464.051 2.742.97 1.84 2.473.207.658.24 1.428-.323 1.73a2.23 2.23 0 0 1-.132 1.184 2.5 2.5 0 0 1-.738 1 2.36 2.36 0 0 1-.45 1.332c-.473.585-.86.464-1.592.464h-5.956a2.56 2.56 0 0 1-1.18-.216 2.2 2.2 0 0 1-.889-.712v-5.78c1.772-.417 2.71-2.542 3.183-3.933v-1.8zm-7.357 4.917h2.695c.149 0 .292.052.397.144a.46.46 0 0 1 .165.348v6.55q0 .099-.041.19a.5.5 0 0 1-.122.16.6.6 0 0 1-.183.108.6.6 0 0 1-.216.038h-2.694a.6.6 0 0 1-.398-.147.47.47 0 0 1-.165-.35V35.41a.47.47 0 0 1 .166-.346.6.6 0 0 1 .396-.146m1.55 4.347c.14 0 .277.036.394.105a.65.65 0 0 1 .262.279.55.55 0 0 1 .04.359.6.6 0 0 1-.194.318.75.75 0 0 1-.364.17.8.8 0 0 1-.41-.035.7.7 0 0 1-.32-.23.57.57 0 0 1-.12-.345c0-.165.075-.323.209-.44a.77.77 0 0 1 .502-.181M19.798 70.45l6.158-.96 3.04 4.754c2.2 2.39 3.6-1.535 4.242-2.904l5.861-9.736c-1.363-.413-3.002-1.61-4.694-2.946-3.368.06-6.508-.464-8.815-3.02l-6.794 11.463-.594 1.104c-.462 1.433-.218 2.38 1.591 2.245zm45.386 0-6.126-.96-3.04 4.754c-2.206 2.39-3.606-1.535-4.242-2.904l-5.893-9.736c1.363-.413 3.007-1.61 4.694-2.946 3.368.06 6.508-.464 8.815-3.02l6.8 11.481.604 1.086c.462 1.433.218 2.38-1.591 2.245zm-22.69-45.339c2.636.004 5.212.69 7.402 1.974s3.896 3.107 4.902 5.238c1.005 2.131 1.267 4.475.75 6.736s-1.789 4.337-3.654 5.966c-1.866 1.63-4.242 2.738-6.828 3.187a15.1 15.1 0 0 1-7.701-.667c-2.435-.883-4.517-2.378-5.98-4.295-1.465-1.918-2.246-4.172-2.246-6.477a10.4 10.4 0 0 1 1.015-4.468 11.7 11.7 0 0 1 2.896-3.786 13.6 13.6 0 0 1 4.334-2.527 15 15 0 0 1 5.11-.881" clip-rule="evenodd"/>
  </g>
  <defs>
    <filter id="a" width="49.1" height="57.7" x="18" y="18" color-interpolation-filters="sRGB" filterUnits="userSpaceOnUse">
      <feFlood flood-opacity="0" result="BackgroundImageFix"/>
      <feBlend in="SourceGraphic" in2="BackgroundImageFix" mode="normal" result="shape"/>
      <feColorMatrix in="SourceAlpha" result="hardAlpha" type="matrix" values="0 0 0 0 0 0 0 0 0 0 0 0 0 0 0 0 0 0 127 0"/>
      <feOffset dx=".1" dy=".7"/>
      <feGaussianBlur stdDeviation=".55"/>
      <feComposite in2="hardAlpha" k2="-1" k3="1" operator="arithmetic"/>
      <feColorMatrix type="matrix" values="0 0 0 0 0 0 0 0 0 0 0 0 0 0 0 0 0 0 0.7 0"/>
      <feBlend in2="shape" mode="normal" result="effect1_innerShadow_482_995"/>
    </filter>
  </defs>
</svg>
