<svg xmlns="http://www.w3.org/2000/svg" fill="none" viewBox="0 0 48 48">
  <path fill="#7360f2" d="M24 0c13.255 0 24 10.745 24 24S37.255 48 24 48 0 37.255 0 24 10.745 0 24 0"/>
  <path fill="#fff" d="M24.743 18.949a.427.427 0 0 1 .449-.404c.88.046 1.613.313 2.135.852.52.538.775 1.289.82 2.19a.427.427 0 1 1-.853.043c-.038-.772-.25-1.298-.58-1.64-.329-.339-.83-.554-1.567-.592a.427.427 0 0 1-.404-.449"/>
  <path fill="#fff" d="M24.553 16.255a.427.427 0 1 0-.062.851c1.625.12 2.846.663 3.719 1.616.875.957 1.305 2.15 1.274 3.612a.427.427 0 1 0 .853.018c.036-1.657-.458-3.07-1.498-4.206-1.05-1.148-2.493-1.76-4.286-1.891"/>
  <path fill="#fff" d="M23.343 14.463a.427.427 0 0 1 .43-.423c2.477.017 4.57.841 6.252 2.48 1.695 1.653 2.533 3.903 2.554 6.697a.427.427 0 1 1-.853.006c-.02-2.618-.8-4.631-2.297-6.091-1.513-1.475-3.39-2.223-5.662-2.239a.427.427 0 0 1-.424-.43m2.834 12.516c-.323.398-.923.347-.923.347-4.385-1.12-5.559-5.562-5.559-5.562s-.053-.6.347-.923l.793-.63c.393-.302.643-1.037.243-1.755a19 19 0 0 0-1-1.566 42 42 0 0 0-1.164-1.456c-.392-.462-.968-.57-1.576-.253l-.006.002-.006.001a6.6 6.6 0 0 0-1.614 1.31l-.005.007-.005.005q-.563.68-.644 1.333a1 1 0 0 0-.012.194q-.003.29.087.566l.02.014c.19.673.664 1.793 1.694 3.66a22 22 0 0 0 2.03 3.074 16 16 0 0 0 1.243 1.398l.03.031.14.14q.658.653 1.383 1.227a22 22 0 0 0 3.075 2.03c1.867 1.03 2.988 1.504 3.659 1.694l.014.02q.276.09.566.087a1 1 0 0 0 .195-.012q.654-.077 1.33-.643c.006-.003.006-.006.012-.01a6.6 6.6 0 0 0 1.312-1.618l.002-.008c.316-.608.21-1.184-.256-1.576l-.102-.084c-.264-.218-.97-.8-1.353-1.081a19 19 0 0 0-1.565-1c-.718-.4-1.451-.149-1.755.244z"/>
  <path fill="#fff" fill-rule="evenodd" d="M36.388 11.291c-.839-.774-4.227-3.233-11.774-3.267 0 0-8.9-.536-13.24 3.443C8.96 13.883 8.11 17.417 8.02 21.8s-.206 12.595 7.71 14.822h.008l-.005 3.398s-.05 1.376.856 1.656c.914.284 1.513-.397 2.295-1.285q.23-.265.49-.547a89 89 0 0 0 1.964-2.222c5.414.455 9.578-.586 10.051-.74q.148-.047.408-.11c1.749-.445 6.961-1.77 7.878-9.25 1.038-8.464-.503-13.818-3.287-16.23m.917 15.625c-.764 6.174-4.908 7.138-6.401 7.485-.165.039-.298.07-.39.1-.393.126-4.05 1.036-8.65.735 0 0-3.427 4.135-4.497 5.21-.167.168-.364.236-.495.202-.184-.045-.235-.263-.233-.582l.03-5.647c-6.476-1.798-6.325-8.393-6.24-12.136l.01-.373c.075-3.66.763-6.66 2.805-8.676 3.67-3.324 11.23-2.828 11.23-2.828 6.385.028 9.444 1.951 10.153 2.595 2.356 2.017 3.556 6.843 2.678 13.913z" clip-rule="evenodd"/>
</svg>
