<svg xmlns="http://www.w3.org/2000/svg" fill="none" viewBox="0 0 85 98">
  <path fill="#ff8502" d="M37.506 2.879a10 10 0 0 1 9.988 0l32.5 18.735A10 10 0 0 1 85 30.278v37.444a10 10 0 0 1-5.006 8.664l-32.5 18.735a10 10 0 0 1-9.988 0l-32.5-18.735A10 10 0 0 1 0 67.722V30.278a10 10 0 0 1 5.006-8.664z"/>
  <g clip-path="url(#a)">
    <g filter="url(#b)">
      <path fill="#fff" d="M30 53.218v-1.215q0-1.057.454-1.831a3.5 3.5 0 0 1 1.179-1.215 8.6 8.6 0 0 1 1.59-.757q.872-.316 1.745-.508.882-.2 1.598-.4 1.625-.465 1.625-1.323 0-.93-.507-1.273-.506-.34-1.711-.341h-.62q-1.686 0-2.218 1.024-.393.782-1.179.782h-1.04q-.427 0-.663-.291a1 1 0 0 1-.236-.633q0-.948.76-1.706.768-.765 1.904-1.148A7.4 7.4 0 0 1 35.047 42h1.179q3.834 0 4.855 2.03.402.8.402 1.856t-.454 1.798a3.5 3.5 0 0 1-1.17 1.181 9 9 0 0 1-1.599.75 16 16 0 0 1-1.746.524q-.873.199-1.59.383-1.632.432-1.632 1.123h7.248a.8.8 0 0 1 .593.233.74.74 0 0 1 .245.557v.783a.73.73 0 0 1-.253.557.84.84 0 0 1-.585.225h-9.693a.87.87 0 0 1-.594-.225.73.73 0 0 1-.253-.557m11.937-2.097v-.99q0-.733.541-1.299l5.772-6.25q.48-.507 1.362-.515h2.733a.84.84 0 0 1 .603.233.74.74 0 0 1 .244.557v6.69h.96a.84.84 0 0 1 .603.234.74.74 0 0 1 .245.557v.783a.73.73 0 0 1-.253.557.87.87 0 0 1-.594.225h-.96v1.315a.73.73 0 0 1-.254.557.87.87 0 0 1-.594.225h-1.624a.85.85 0 0 1-.585-.216.73.73 0 0 1-.236-.55v-1.331h-7.116a.87.87 0 0 1-.594-.225.73.73 0 0 1-.253-.557m3.51-1.573H49.9V44.73z"/>
    </g>
    <g filter="url(#c)">
      <path fill="#fff" d="M62 54.054v-.524q0-.218.184-.374a.64.64 0 0 1 .43-.156h6.778q.247 0 .424.156a.48.48 0 0 1 .184.374v.513q0 .385-.386 1.016l-3.323 5.417q-.323.524-.83.524h-1.296q-.255 0-.361-.145-.102-.15 0-.324l3.658-5.952h-4.848a.65.65 0 0 1-.437-.15.48.48 0 0 1-.177-.375"/>
    </g>
    <g filter="url(#d)">
      <path fill="#fff" d="M63.732 67.455c-6.527 6.398-14.878 9.426-21.234 9.54a27.68 27.68 0 0 1-17.596-5.926c-5.034-3.951-8.598-9.528-10.104-15.815a28.97 28.97 0 0 1 1.814-18.774c2.681-5.867 7.244-10.63 12.938-13.508a27.56 27.56 0 0 1 18.393-2.323c6.212 1.374 11.78 4.858 15.79 9.88A28.8 28.8 0 0 1 70 48.282h-5.186l-5.587.084a17.73 17.73 0 0 0-3.856-10.923 17.2 17.2 0 0 0-9.714-6.078 16.96 16.96 0 0 0-11.317 1.43 17.4 17.4 0 0 0-7.96 8.31 17.82 17.82 0 0 0-1.116 11.55 17.57 17.57 0 0 0 6.217 9.73 17.03 17.03 0 0 0 10.825 3.647c3.911-.071 8.613 0 14.457-6.546l3.419 4.04z"/>
    </g>
    <g filter="url(#e)">
      <path fill="#fff" d="M32 38.975V35.24h2.52v.653h-1.676v.78h.335q.564 0 .922.146.363.147.537.403.173.256.173.586 0 .366-.173.627-.174.262-.537.403-.363.136-.939.136zm1.129-.649q.385 0 .603-.115.224-.114.224-.402 0-.2-.112-.304a.57.57 0 0 0-.307-.141 2.3 2.3 0 0 0-.475-.042h-.218v1.004zm3.625-2.26q.425 0 .726.153a1.1 1.1 0 0 1 .475.439q.168.288.168.706v.377h-1.967q.01.33.206.517.202.189.554.189.296 0 .536-.053a3 3 0 0 0 .497-.172v.601q-.223.105-.474.152a3 3 0 0 1-.598.052q-.459 0-.81-.157a1.25 1.25 0 0 1-.554-.486q-.201-.324-.201-.816 0-.502.179-.832.184-.334.508-.502t.755-.167m.005.555a.58.58 0 0 0-.402.147q-.156.147-.185.455h1.168a.7.7 0 0 0-.067-.309.5.5 0 0 0-.19-.214.6.6 0 0 0-.324-.079m3.15-.554q.33 0 .615.084.291.078.464.245a.56.56 0 0 1 .18.43q0 .255-.169.407a1 1 0 0 1-.441.22v.026q.196.042.352.12a.6.6 0 0 1 .246.204.55.55 0 0 1 .095.34.7.7 0 0 1-.162.44q-.157.198-.492.324-.33.12-.85.12-.245 0-.463-.02a4 4 0 0 1-.397-.058 2 2 0 0 1-.313-.1v-.643q.19.084.464.152a2.5 2.5 0 0 0 .592.068q.23 0 .408-.032a.7.7 0 0 0 .29-.104.22.22 0 0 0 .113-.194.23.23 0 0 0-.095-.188.64.64 0 0 0-.285-.115 2.7 2.7 0 0 0-.486-.037h-.325v-.538h.308q.414 0 .637-.063.228-.062.229-.236 0-.135-.145-.203-.146-.075-.475-.074-.219 0-.475.047a2.7 2.7 0 0 0-.486.136l-.246-.544q.263-.093.575-.151.314-.063.738-.063m6.128.8a.54.54 0 0 1-.157.392q-.15.162-.452.21v.02a.9.9 0 0 1 .509.205.54.54 0 0 1 .195.428.75.75 0 0 1-.078.34.7.7 0 0 1-.235.272 1.2 1.2 0 0 1-.419.178 2.6 2.6 0 0 1-.615.063h-1.452V36.12h1.452q.358 0 .637.074.286.068.447.23a.6.6 0 0 1 .168.444m-.765 1.214a.25.25 0 0 0-.14-.241q-.14-.078-.42-.079h-.547v.675h.565a.8.8 0 0 0 .385-.078q.157-.084.157-.277m-.079-1.151a.21.21 0 0 0-.111-.199.7.7 0 0 0-.33-.063h-.587v.565h.492q.262 0 .397-.068a.25.25 0 0 0 .14-.235m2.458.319q0 .09-.01.22a7 7 0 0 1-.017.266 4 4 0 0 1-.034.387L49 36.12h1v2.856h-.804v-1.14q0-.141.011-.309l.022-.319q.017-.152.023-.23l-1.403 1.998h-1V36.12h.804zm3.843.267-.983-1.397h.944l.593.91.597-.91h.945l-.995 1.397 1.04 1.459h-.945l-.642-.978-.643.978h-.944zm3.438-1.397v2.856h-.833V36.12zM54.518 35a.6.6 0 0 1 .319.084q.134.078.134.298 0 .214-.134.298a.6.6 0 0 1-.319.084.6.6 0 0 1-.324-.084q-.129-.084-.128-.298 0-.22.128-.298a.6.6 0 0 1 .324-.084m4.027 1.12v2.285h.447V40h-.748v-1.025h-2.051V40h-.749v-1.595h.257a3 3 0 0 0 .341-.654q.139-.37.224-.79a8 8 0 0 0 .122-.842zm-1.458.585q-.045.314-.112.612-.067.292-.168.565a3.3 3.3 0 0 1-.234.523h1.14v-1.7zm3.258-.586v1.099h1.162v-1.099h.833v2.856h-.833v-1.177h-1.162v1.177h-.833v-2.856zm3.672 1.13q0 .09-.011.22-.006.13-.017.266a4 4 0 0 1-.033.387l1.408-2.003h1v2.856h-.805v-1.14q0-.141.011-.309l.023-.319.022-.23-1.403 1.998h-1v-2.856h.805zm3.843.267-.984-1.397h.945l.592.91.598-.91h.944l-.994 1.397L70 38.975h-.944l-.643-.978-.643.978h-.944z"/>
    </g>
  </g>
  <defs>
    <filter id="b" width="25.1" height="12.7" x="30" y="42" color-interpolation-filters="sRGB" filterUnits="userSpaceOnUse">
      <feFlood flood-opacity="0" result="BackgroundImageFix"/>
      <feBlend in="SourceGraphic" in2="BackgroundImageFix" result="shape"/>
      <feColorMatrix in="SourceAlpha" result="hardAlpha" values="0 0 0 0 0 0 0 0 0 0 0 0 0 0 0 0 0 0 127 0"/>
      <feOffset dx=".1" dy=".7"/>
      <feGaussianBlur stdDeviation=".55"/>
      <feComposite in2="hardAlpha" k2="-1" k3="1" operator="arithmetic"/>
      <feColorMatrix values="0 0 0 0 0 0 0 0 0 0 0 0 0 0 0 0 0 0 0.7 0"/>
      <feBlend in2="shape" result="effect1_innerShadow_482_967"/>
    </filter>
    <filter id="c" width="8.1" height="8.7" x="62" y="53" color-interpolation-filters="sRGB" filterUnits="userSpaceOnUse">
      <feFlood flood-opacity="0" result="BackgroundImageFix"/>
      <feBlend in="SourceGraphic" in2="BackgroundImageFix" result="shape"/>
      <feColorMatrix in="SourceAlpha" result="hardAlpha" values="0 0 0 0 0 0 0 0 0 0 0 0 0 0 0 0 0 0 127 0"/>
      <feOffset dx=".1" dy=".7"/>
      <feGaussianBlur stdDeviation=".5"/>
      <feComposite in2="hardAlpha" k2="-1" k3="1" operator="arithmetic"/>
      <feColorMatrix values="0 0 0 0 0 0 0 0 0 0 0 0 0 0 0 0 0 0 0.7 0"/>
      <feBlend in2="shape" result="effect1_innerShadow_482_967"/>
    </filter>
    <filter id="d" width="56.1" height="57.7" x="14" y="20" color-interpolation-filters="sRGB" filterUnits="userSpaceOnUse">
      <feFlood flood-opacity="0" result="BackgroundImageFix"/>
      <feBlend in="SourceGraphic" in2="BackgroundImageFix" result="shape"/>
      <feColorMatrix in="SourceAlpha" result="hardAlpha" values="0 0 0 0 0 0 0 0 0 0 0 0 0 0 0 0 0 0 127 0"/>
      <feOffset dx=".1" dy=".7"/>
      <feGaussianBlur stdDeviation=".55"/>
      <feComposite in2="hardAlpha" k2="-1" k3="1" operator="arithmetic"/>
      <feColorMatrix values="0 0 0 0 0 0 0 0 0 0 0 0 0 0 0 0 0 0 0.7 0"/>
      <feBlend in2="shape" result="effect1_innerShadow_482_967"/>
    </filter>
    <filter id="e" width="38.5" height="5.75" x="31.95" y="35" color-interpolation-filters="sRGB" filterUnits="userSpaceOnUse">
      <feFlood flood-opacity="0" result="BackgroundImageFix"/>
      <feColorMatrix in="SourceAlpha" result="hardAlpha" values="0 0 0 0 0 0 0 0 0 0 0 0 0 0 0 0 0 0 127 0"/>
      <feOffset dx=".2" dy=".5"/>
      <feGaussianBlur stdDeviation=".125"/>
      <feComposite in2="hardAlpha" operator="out"/>
      <feColorMatrix values="0 0 0 0 0 0 0 0 0 0 0 0 0 0 0 0 0 0 0.7 0"/>
      <feBlend in2="BackgroundImageFix" result="effect1_dropShadow_482_967"/>
      <feBlend in="SourceGraphic" in2="effect1_dropShadow_482_967" result="shape"/>
    </filter>
    <clipPath id="a">
      <path fill="#fff" d="M14 20h57v57H14z"/>
    </clipPath>
  </defs>
</svg>
