<svg xmlns="http://www.w3.org/2000/svg" fill="none" viewBox="0 0 85 98">
  <path fill="#ff8502" d="M37.506 2.879a10 10 0 0 1 9.988 0l32.5 18.735A10 10 0 0 1 85 30.278v37.444a10 10 0 0 1-5.006 8.664l-32.5 18.735a10 10 0 0 1-9.988 0l-32.5-18.735A10 10 0 0 1 0 67.722V30.278a10 10 0 0 1 5.006-8.664z"/>
  <g filter="url(#a)">
    <path fill="#fff" d="M52.066 79c-2.373 0-4.304-1.99-4.304-4.436 0-1.129.43-2.188 1.19-2.986H29.8a.67.67 0 0 1-.668-.668v-.475c0-.243.132-.467.345-.584a3.04 3.04 0 0 0 1.584-2.652 3.047 3.047 0 0 0-3.043-3.043 3.046 3.046 0 0 0-3.042 3.043c0 1.058.547 2.026 1.463 2.589.2.12.32.337.32.57v.552c0 .37-.3.668-.668.668h-7.424A.67.67 0 0 1 18 70.91V30.09c0-.37.299-.668.668-.668h6.223a4.38 4.38 0 0 1-1.25-3.043c0-2.455 1.89-4.379 4.304-4.379 2.455 0 4.453 1.965 4.453 4.379 0 1.152-.462 2.24-1.254 3.043h17.868a4.38 4.38 0 0 1-1.25-3.043c0-2.455 1.89-4.379 4.304-4.379 2.455 0 4.453 1.965 4.453 4.379 0 1.152-.462 2.24-1.256 3.043H66.91c.37 0 .668.299.668.668v9.277c0 .37-.299.668-.668.668h-.445a.66.66 0 0 1-.585-.347c-.52-.944-1.514-1.508-2.662-1.508a3.054 3.054 0 0 0-3.06 3.043 3.054 3.054 0 0 0 3.06 3.043c1.007 0 2.007-.592 2.607-1.544a.67.67 0 0 1 .566-.312h.52c.368 0 .667.299.667.668v15.343a4.44 4.44 0 0 1 3.025-1.167c2.425 0 4.397 1.965 4.397 4.379s-1.972 4.379-4.397 4.379c-1.117 0-2.205-.479-3.025-1.292v6.19c0 .37-.299.668-.668.668H55.32a4.33 4.33 0 0 1 1.2 2.986c0 2.406-2.04 4.436-4.454 4.436m-8.609-8.758h6.754c.37 0 .668.299.668.668v.501a.67.67 0 0 1-.32.57 3.02 3.02 0 0 0-1.461 2.584c0 1.71 1.332 3.1 2.968 3.1 1.69 0 3.118-1.42 3.118-3.1a3.02 3.02 0 0 0-1.583-2.642.67.67 0 0 1-.349-.584v-.429c0-.37.299-.668.668-.668h12.32v-6.754c0-.369.3-.668.668-.668h.538a.67.67 0 0 1 .57.32c.58.948 1.573 1.536 2.587 1.536a3.053 3.053 0 0 0 3.06-3.043 3.053 3.053 0 0 0-3.06-3.043c-1.149 0-2.143.564-2.663 1.506a.67.67 0 0 1-.584.35h-.446a.67.67 0 0 1-.668-.669v-8.609H43.457v7.253c.792-.744 1.86-1.167 3.03-1.167 2.421 0 4.394 1.965 4.394 4.379s-1.97 4.379-4.394 4.379c-1.119 0-2.208-.475-3.03-1.284zm-12.31 0h10.976v-6.754c0-.369.299-.668.668-.668h.529a.67.67 0 0 1 .57.32c.582.948 1.578 1.536 2.599 1.536a3.05 3.05 0 0 0 3.056-3.043 3.05 3.05 0 0 0-3.056-3.043c-1.143 0-2.14.564-2.665 1.51a.67.67 0 0 1-.584.345h-.45a.67.67 0 0 1-.669-.668v-8.609h-12.32a.67.67 0 0 1-.668-.668v-.475c0-.243.132-.468.345-.584a3.04 3.04 0 0 0 1.584-2.652 3.047 3.047 0 0 0-3.043-3.043 3.047 3.047 0 0 0-3.042 3.043 3.02 3.02 0 0 0 1.463 2.587c.2.12.32.337.32.57v.554c0 .37-.3.668-.668.668h-6.756v19.074h5.546A4.32 4.32 0 0 1 23.64 67.2a4.383 4.383 0 0 1 4.379-4.379 4.385 4.385 0 0 1 4.378 4.38 4.37 4.37 0 0 1-1.25 3.042Zm12.31-20.41h22.785v-5.516c-.83.81-1.916 1.284-3.024 1.284-2.425 0-4.398-1.965-4.398-4.38 0-2.413 1.973-4.378 4.398-4.378 1.154 0 2.232.428 3.024 1.165v-7.25h-12.32a.67.67 0 0 1-.668-.667v-.483c0-.243.134-.467.349-.584a3.02 3.02 0 0 0 1.58-2.644c0-1.65-1.426-3.043-3.117-3.043-1.664 0-2.968 1.338-2.968 3.043 0 1.056.545 2.022 1.462 2.586a.67.67 0 0 1 .319.568v.557c0 .37-.299.668-.668.668h-6.754v7.253a4.44 4.44 0 0 1 3.024-1.165c2.425 0 4.398 1.965 4.398 4.379s-1.972 4.378-4.398 4.378c-1.115 0-2.204-.476-3.024-1.291zm-12.31 0h10.976v-6.754c0-.37.299-.668.668-.668h.538c.232 0 .447.12.57.317.582.949 1.573 1.539 2.586 1.539a3.054 3.054 0 0 0 3.06-3.043c0-1.678-1.375-3.043-3.064-3.043-1.148 0-2.143.564-2.66 1.508a.67.67 0 0 1-.587.347h-.445a.67.67 0 0 1-.668-.668v-8.61h-12.32a.67.67 0 0 1-.668-.667v-.483c0-.243.132-.467.347-.584a3.03 3.03 0 0 0 1.582-2.644c0-1.65-1.428-3.043-3.117-3.043-1.664 0-2.968 1.338-2.968 3.043 0 1.04.56 2.032 1.463 2.586a.67.67 0 0 1 .318.568v.557c0 .37-.299.668-.668.668h-6.754v19.074h5.546a4.32 4.32 0 0 1-1.241-3.043 4.385 4.385 0 0 1 4.379-4.379 4.385 4.385 0 0 1 4.378 4.38 4.36 4.36 0 0 1-1.25 3.042Z"/>
  </g>
  <defs>
    <filter id="a" width="57.1" height="57.7" x="18" y="22" color-interpolation-filters="sRGB" filterUnits="userSpaceOnUse">
      <feFlood flood-opacity="0" result="BackgroundImageFix"/>
      <feBlend in="SourceGraphic" in2="BackgroundImageFix" result="shape"/>
      <feColorMatrix in="SourceAlpha" result="hardAlpha" values="0 0 0 0 0 0 0 0 0 0 0 0 0 0 0 0 0 0 127 0"/>
      <feOffset dx=".1" dy=".7"/>
      <feGaussianBlur stdDeviation=".55"/>
      <feComposite in2="hardAlpha" k2="-1" k3="1" operator="arithmetic"/>
      <feColorMatrix values="0 0 0 0 0 0 0 0 0 0 0 0 0 0 0 0 0 0 0.7 0"/>
      <feBlend in2="shape" result="effect1_innerShadow_4775_280"/>
    </filter>
  </defs>
</svg>
