<svg xmlns="http://www.w3.org/2000/svg" fill="none" viewBox="0 0 85 98">
  <path fill="#ff8502" d="M37.506 2.879a10 10 0 0 1 9.988 0l32.5 18.735A10 10 0 0 1 85 30.278v37.444a10 10 0 0 1-5.006 8.664l-32.5 18.735a10 10 0 0 1-9.988 0l-32.5-18.735A10 10 0 0 1 0 67.722V30.278a10 10 0 0 1 5.006-8.664z"/>
  <g filter="url(#a)">
    <path fill="#fff" d="M24.167 36.25a6.1 6.1 0 0 0 3.395-1.032 6.138 6.138 0 0 0 .926-9.424 6.11 6.11 0 0 0-6.66-1.328 6.1 6.1 0 0 0-2.742 2.256 6.135 6.135 0 0 0 .76 7.734 6.1 6.1 0 0 0 4.32 1.794Zm0 16.851a4.23 4.23 0 0 1 1.302-3.062l6.887-6.516c.158-.148.36-.22.536-.341a6.1 6.1 0 0 0-2.241-2.809 6.1 6.1 0 0 0-3.429-1.06h-6.11a6.1 6.1 0 0 0-4.322 1.793A6.13 6.13 0 0 0 15 45.438v9.188c0 .812.322 1.591.895 2.166.573.574 1.35.897 2.16.897v12.25c0 .812.323 1.59.896 2.165a3.05 3.05 0 0 0 2.16.897h6.111a3.05 3.05 0 0 0 2.16-.897 3.07 3.07 0 0 0 .896-2.165v-9.225l-4.809-4.55a4.22 4.22 0 0 1-1.302-3.062ZM60.833 36.25c1.209 0 2.39-.36 3.395-1.032a6.138 6.138 0 0 0 .926-9.424 6.11 6.11 0 0 0-6.66-1.328 6.1 6.1 0 0 0-2.742 2.256 6.135 6.135 0 0 0 .76 7.734 6.1 6.1 0 0 0 4.321 1.794m3.056 3.063h-6.111a6.1 6.1 0 0 0-3.429 1.06 6.1 6.1 0 0 0-2.241 2.808c.175.121.382.191.536.343l6.887 6.514a4.25 4.25 0 0 1 1.302 3.063 4.26 4.26 0 0 1-1.302 3.062l-4.809 4.55v9.224c0 .813.322 1.592.895 2.166s1.35.897 2.16.897h6.112c.81 0 1.587-.323 2.16-.897a3.07 3.07 0 0 0 .895-2.165v-12.25c.81 0 1.588-.323 2.161-.898A3.07 3.07 0 0 0 70 54.626v-9.188a6.13 6.13 0 0 0-1.79-4.33 6.1 6.1 0 0 0-4.321-1.794Zm-6.455 12.952-6.886-6.514a1.145 1.145 0 0 0-1.937.835v3.445H36.39v-3.445a1.15 1.15 0 0 0-.693-1.06 1.14 1.14 0 0 0-1.244.224l-6.886 6.515a1.19 1.19 0 0 0 0 1.672l6.886 6.514a1.145 1.145 0 0 0 1.937-.836v-3.459h12.22v3.459a1.15 1.15 0 0 0 .692 1.06 1.14 1.14 0 0 0 1.245-.224l6.886-6.514a1.19 1.19 0 0 0 0-1.672Z"/>
  </g>
  <defs>
    <filter id="a" width="55.1" height="49.7" x="15" y="24" color-interpolation-filters="sRGB" filterUnits="userSpaceOnUse">
      <feFlood flood-opacity="0" result="BackgroundImageFix"/>
      <feBlend in="SourceGraphic" in2="BackgroundImageFix" result="shape"/>
      <feColorMatrix in="SourceAlpha" result="hardAlpha" values="0 0 0 0 0 0 0 0 0 0 0 0 0 0 0 0 0 0 127 0"/>
      <feOffset dx=".1" dy=".7"/>
      <feGaussianBlur stdDeviation=".55"/>
      <feComposite in2="hardAlpha" k2="-1" k3="1" operator="arithmetic"/>
      <feColorMatrix values="0 0 0 0 0 0 0 0 0 0 0 0 0 0 0 0 0 0 0.7 0"/>
      <feBlend in2="shape" result="effect1_innerShadow_4775_267"/>
    </filter>
  </defs>
</svg>
