<svg xmlns="http://www.w3.org/2000/svg" fill="none" viewBox="0 0 85 98">
  <path fill="#ff8502" d="M37.506 2.879a10 10 0 0 1 9.988 0l32.5 18.735A10 10 0 0 1 85 30.278v37.444a10 10 0 0 1-5.006 8.664l-32.5 18.735a10 10 0 0 1-9.988 0l-32.5-18.735A10 10 0 0 1 0 67.722V30.278a10 10 0 0 1 5.006-8.664z"/>
  <g filter="url(#a)">
    <path fill="#fff" fill-rule="evenodd" d="M37.269 20.055a11.96 11.96 0 0 1 5.674-1.03c1.951.113 3.858.653 5.594 1.586 3.647 1.971 6.441 5.645 6.629 10.539.01.278-.086.549-.267.753a1 1 0 0 1-.7.337 1 1 0 0 1-.725-.278 1.07 1.07 0 0 1-.323-.729 12.1 12.1 0 0 0-1.492-5.006 11.6 11.6 0 0 0-3.434-3.835c-.133-.07-.263-.139-.4-.204a.9.9 0 0 1-.358.056c-.918 0-1.158 1.68-1.212 3.97-.027 1.03 0 2.162 0 3.317 0 .928.036 1.856.036 2.482 0 .276-.106.542-.294.738a.98.98 0 0 1-.71.305.98.98 0 0 1-.709-.305 1.07 1.07 0 0 1-.293-.738c0-1.016 0-1.74-.027-2.45 0-1.182-.045-2.319 0-3.395.053-2.069.29-3.822 1.016-4.875a20 20 0 0 0-2.425-.25 17.4 17.4 0 0 0-2.88.102c.67 1.08.892 2.806.946 4.833.027 1.1 0 2.296 0 3.52v2.515c-.017.258-.127.5-.309.676a.96.96 0 0 1-.67.275.96.96 0 0 1-.67-.275 1.04 1.04 0 0 1-.308-.676c0-.65 0-1.6.036-2.542.022-1.206.04-2.38 0-3.442-.054-2.352-.299-4.091-1.23-4.063a.9.9 0 0 1-.33-.056c-2.305 1.392-4.351 4.383-5.35 9.398-.04.27-.18.514-.391.677a.97.97 0 0 1-.736.195.95.95 0 0 1-.373-.112 1 1 0 0 1-.3-.254 1.03 1.03 0 0 1-.219-.757c.753-5.844 3.638-9.379 7.2-11.002zm11.25 32.191c-.236.148-.588.366-.891.543q-.27.166-.562.287c-.747.376-1.532.665-2.34.863a8.8 8.8 0 0 1-4.257.028h-.027a12 12 0 0 1-1.912-.64 13 13 0 0 1-1.337-.622 15 15 0 0 1-1.128-.677v2.32l6.24 2.008L48.52 54.5zm-15.445-15.33-.374 2.319a.34.34 0 0 1-.129.21.3.3 0 0 1-.232.059.5.5 0 0 1-.116-.046l-1.11-.743h-.054c-.191-.027-.33-.041-.446.172q-.125.246-.151.524-.047.465 0 .928.062.551.214 1.085.137.507.361.979c.137.314.332.596.575.83a.44.44 0 0 0 .392.135h.023a.64.64 0 0 1 .49.06.72.72 0 0 1 .334.408v.023l.196.599.147.464c.558 1.73.99 3.066 1.962 4.244.434.516.92.983 1.448 1.392q.852.664 1.81 1.15h.023q.187.097.374.18l.401.172a9.7 9.7 0 0 0 1.61.464 8.5 8.5 0 0 0 1.59.167 9 9 0 0 0 1.868-.167 9.5 9.5 0 0 0 1.823-.589c.139-.06.246-.116.353-.167a10 10 0 0 0 1.84-1.197 9.2 9.2 0 0 0 1.49-1.535c.37-.493.67-1.04.89-1.623q.37-.97.643-1.972l.067-.232q.139-.488.298-1.025a.73.73 0 0 1 .294-.431.7.7 0 0 1 .49-.102c.152.028.33-.093.513-.311a4.7 4.7 0 0 0 .714-1.322q.173-.454.285-.928.109-.458.147-.927v-.028a4 4 0 0 0 0-.738 1.3 1.3 0 0 0-.116-.464c-.085-.153-.151-.236-.223-.264a.5.5 0 0 0-.285 0l-.41.278c-.35.267-.744.462-1.164.575a.3.3 0 0 1-.328-.11.3.3 0 0 1-.055-.112.3.3 0 0 1 0-.06l-.2-2.37a18 18 0 0 1-.794.227c-5.478 2.161-12.927 1.994-17.473-.158zm-8.942 25.168h16.939c.08 0 .156.033.213.091s.089.137.09.22v2.75a.33.33 0 0 1-.09.223.3.3 0 0 1-.213.093H24.132a.3.3 0 0 1-.211-.094.32.32 0 0 1-.087-.221v-2.75c0-.083.031-.162.087-.22a.3.3 0 0 1 .211-.092m19.77 5.683H60.84c.08 0 .155.032.211.09a.32.32 0 0 1 .088.22v1.902a.34.34 0 0 1-.095.213.32.32 0 0 1-.204.098 76.6 76.6 0 0 1-16.939 1.702.3.3 0 0 1-.213-.093.33.33 0 0 1-.09-.222v-3.6a.32.32 0 0 1 .09-.22.3.3 0 0 1 .213-.09m-19.77 0H41.07c.08 0 .156.032.213.09s.089.138.09.22v3.6a.33.33 0 0 1-.09.222.3.3 0 0 1-.213.093 76.6 76.6 0 0 1-16.939-1.702.32.32 0 0 1-.204-.098.34.34 0 0 1-.094-.213v-1.902a.32.32 0 0 1 .087-.22.3.3 0 0 1 .211-.09m19.77-5.683H60.84c.08 0 .155.033.211.091a.32.32 0 0 1 .088.22v2.75a.32.32 0 0 1-.088.222.3.3 0 0 1-.21.094H43.9a.3.3 0 0 1-.213-.093.33.33 0 0 1-.09-.222v-2.75a.32.32 0 0 1 .09-.22.3.3 0 0 1 .213-.092m11.22-29.788 1.733 1.039a6.8 6.8 0 0 1-2.612 2.319v.334l.125 1.438q.219.06.405.195c.2.147.366.34.482.566.147.288.239.603.272.927q.06.576 0 1.15v.028q-.058.563-.183 1.114-.13.575-.339 1.127a5.8 5.8 0 0 1-.998 1.758c-.293.36-.683.62-1.12.747l-.088.306c-.05.162-.107.338-.143.496-.446 1.596-.811 2.848-1.756 4.096-.205.27-.446.533-.66.784q-.24.26-.495.5a1 1 0 0 1 0 .135v2.784a.87.87 0 0 1 .776-.038c16.939 7.12 13.694 1.346 16.457 16.022 1.24 6.582-50.593 8.901-48.94.246 2.827-14.843-1.27-8.813 16.61-16.235h.044q.081-.034.165-.056V51.23c0-.1.022-.199.067-.287l-.276-.279q-.278-.293-.522-.584a9.1 9.1 0 0 1-1.315-2.203c-.334-.77-.606-1.61-.892-2.552l-.155-.491a1.9 1.9 0 0 1-.972-.464 4.05 4.05 0 0 1-.94-1.304 7.6 7.6 0 0 1-.447-1.224 8 8 0 0 1-.258-1.331 5.8 5.8 0 0 1 0-1.332 2.8 2.8 0 0 1 .33-1.057 1.7 1.7 0 0 1 .432-.566q.189-.121.401-.176l.112-1.183a5 5 0 0 1 0-.65 5.7 5.7 0 0 1-2.082-2.319l1.832-.835c1.743 4.824 21.682 5.367 24.962-.102z" clip-rule="evenodd"/>
  </g>
  <defs>
    <filter id="a" width="49.1" height="57.7" x="18" y="19" color-interpolation-filters="sRGB" filterUnits="userSpaceOnUse">
      <feFlood flood-opacity="0" result="BackgroundImageFix"/>
      <feBlend in="SourceGraphic" in2="BackgroundImageFix" mode="normal" result="shape"/>
      <feColorMatrix in="SourceAlpha" result="hardAlpha" type="matrix" values="0 0 0 0 0 0 0 0 0 0 0 0 0 0 0 0 0 0 127 0"/>
      <feOffset dx=".1" dy=".7"/>
      <feGaussianBlur stdDeviation=".55"/>
      <feComposite in2="hardAlpha" k2="-1" k3="1" operator="arithmetic"/>
      <feColorMatrix type="matrix" values="0 0 0 0 0 0 0 0 0 0 0 0 0 0 0 0 0 0 0.7 0"/>
      <feBlend in2="shape" mode="normal" result="effect1_innerShadow_482_1001"/>
    </filter>
  </defs>
</svg>
