<svg xmlns="http://www.w3.org/2000/svg" fill="none" viewBox="0 0 85 98">
  <path fill="#ff8502" d="M37.506 2.879a10 10 0 0 1 9.988 0l32.5 18.735A10 10 0 0 1 85 30.278v37.444a10 10 0 0 1-5.006 8.664l-32.5 18.735a10 10 0 0 1-9.988 0l-32.5-18.735A10 10 0 0 1 0 67.722V30.278a10 10 0 0 1 5.006-8.664z"/>
  <g filter="url(#a)">
    <path fill="#fff" d="M62 41.167C62 29.984 53 21 42 21s-20 9.075-20 20.167c0 7.7 4.637 14.484 10.91 17.875L31.09 76 42 68.667 52.91 76l-1.82-16.958C57.455 55.65 62 48.867 62 41.167M42 59.5c-10.09 0-18.181-8.25-18.181-18.333C23.819 30.992 32 22.834 42 22.834s18.181 8.25 18.181 18.333a18.4 18.4 0 0 1-1.367 7.026 18.3 18.3 0 0 1-3.94 5.956 18.1 18.1 0 0 1-5.907 3.973A18 18 0 0 1 42 59.5m8.182-25.85 2.727 2.75-12.273 12.376-6.818-6.876 2.727-2.75 4.091 4.125z"/>
  </g>
  <defs>
    <filter id="a" width="40.1" height="55.7" x="22" y="21" color-interpolation-filters="sRGB" filterUnits="userSpaceOnUse">
      <feFlood flood-opacity="0" result="BackgroundImageFix"/>
      <feBlend in="SourceGraphic" in2="BackgroundImageFix" result="shape"/>
      <feColorMatrix in="SourceAlpha" result="hardAlpha" values="0 0 0 0 0 0 0 0 0 0 0 0 0 0 0 0 0 0 127 0"/>
      <feOffset dx=".1" dy=".7"/>
      <feGaussianBlur stdDeviation=".55"/>
      <feComposite in2="hardAlpha" k2="-1" k3="1" operator="arithmetic"/>
      <feColorMatrix values="0 0 0 0 0 0 0 0 0 0 0 0 0 0 0 0 0 0 0.7 0"/>
      <feBlend in2="shape" result="effect1_innerShadow_4775_243"/>
    </filter>
  </defs>
</svg>
