<svg xmlns="http://www.w3.org/2000/svg" fill="none" viewBox="0 0 85 98">
  <path fill="#ff8502" d="M37.506 2.879a10 10 0 0 1 9.988 0l32.5 18.735A10 10 0 0 1 85 30.278v37.444a10 10 0 0 1-5.006 8.664l-32.5 18.735a10 10 0 0 1-9.988 0l-32.5-18.735A10 10 0 0 1 0 67.722V30.278a10 10 0 0 1 5.006-8.664z"/>
  <g filter="url(#a)">
    <path fill="#fff" fill-rule="evenodd" d="M29.42 21.573c-.702-.788-1.52-1.382-2.403-1.747a5.36 5.36 0 0 0-2.737-.376c5.582 5.928-1.03 13.583-4.702 4.672-1.507 4.406.064 8.465 3.19 10.551 1.476.986 2.253 1.557 2.792 2.352.303.454.553.965.741 1.515l1.392 4.287h-5.858a.75.75 0 0 0-.355.094 1 1 0 0 0-.3.264 1.3 1.3 0 0 0-.198.394 1.5 1.5 0 0 0-.068.463V65.27c.005 2.313.714 4.53 1.97 6.166 1.257 1.635 2.96 2.557 4.737 2.564h29.975c1.778-.007 3.48-.929 4.737-2.564s1.965-3.853 1.97-6.166V44.042c0-.32-.097-.626-.27-.852s-.41-.352-.655-.352h-8.932l5.212-11.419-3.736-2.803-6.532 14.222h-4.155v-1.485a.36.36 0 0 0-.048-.181c-.2-.312-.351-.52-.479-.732-.295-.447-.446-.67-.446-.815s.143-.39.434-.856c.12-.193.264-.421.43-.706a.35.35 0 0 0 .053-.187V36.23a.33.33 0 0 0-.064-.201.2.2 0 0 0-.156-.084h-1.934l.036-11.465 1.165-2.653c.12-.24.183-.519.183-.804v-2.595a1.7 1.7 0 0 0-.351-1.025c-.217-.267-.507-.412-.805-.402h-2.72a.9.9 0 0 0-.43.12q-.207.116-.363.324a1.6 1.6 0 0 0-.24.481c-.054.18-.081.371-.08.564l.033 2.876c.002.296.075.584.207.825l1.089 2.03-.036 11.745h-2.29a.2.2 0 0 0-.084.022.2.2 0 0 0-.072.063.3.3 0 0 0-.047.094.4.4 0 0 0-.016.111v1.61c0 .069.02.135.056.186.188.27.347.52.487.685.398.556.59.826.594 1.038s-.164.447-.475.96a46 46 0 0 0-.574.966.3.3 0 0 0-.048.182v.965h-5.212l-2.193-6.7a8.2 8.2 0 0 1-.442-1.968 9.5 9.5 0 0 1 .111-1.946c.53-4.038 1.595-7.396-1.088-10.65zm-6.66 28.614h39.705v-4.946H22.76zm39.705 2.403h-5.53v4.043c0 .433-.132.848-.365 1.156-.234.308-.551.484-.884.49h-4.442c-.335-.002-.656-.176-.893-.484a1.93 1.93 0 0 1-.371-1.162V52.59H35.676v4.043a1.93 1.93 0 0 1-.371 1.162c-.237.308-.558.482-.893.484h-4.426c-.336 0-.658-.174-.895-.482a1.93 1.93 0 0 1-.373-1.164V52.59H22.76v12.68c.005 1.677.518 3.283 1.428 4.47.911 1.186 2.145 1.855 3.433 1.862h29.975c1.29-.004 2.526-.672 3.438-1.859s1.427-2.794 1.431-4.473zM49.023 26.774a5.85 5.85 0 0 1 2.113-1.334 3.15 3.15 0 0 1 1.604-.195c.54.076 1.061.292 1.535.636L62.4 31.98l-.49 1.11L65 35.431l3-6.747-3.086-2.341-.559 1.225-8.079-6.062a3.6 3.6 0 0 0-1.538-.784 3.2 3.2 0 0 0-1.652.067c-1.69.592-3.05 2.595-4.08 5.985z" clip-rule="evenodd"/>
  </g>
  <defs>
    <filter id="a" width="49.1" height="57.7" x="19" y="17" color-interpolation-filters="sRGB" filterUnits="userSpaceOnUse">
      <feFlood flood-opacity="0" result="BackgroundImageFix"/>
      <feBlend in="SourceGraphic" in2="BackgroundImageFix" mode="normal" result="shape"/>
      <feColorMatrix in="SourceAlpha" result="hardAlpha" type="matrix" values="0 0 0 0 0 0 0 0 0 0 0 0 0 0 0 0 0 0 127 0"/>
      <feOffset dx=".1" dy=".7"/>
      <feGaussianBlur stdDeviation=".55"/>
      <feComposite in2="hardAlpha" k2="-1" k3="1" operator="arithmetic"/>
      <feColorMatrix type="matrix" values="0 0 0 0 0 0 0 0 0 0 0 0 0 0 0 0 0 0 0.7 0"/>
      <feBlend in2="shape" mode="normal" result="effect1_innerShadow_482_989"/>
    </filter>
  </defs>
</svg>
